{
    "asset" : {
        "generator" : "Khronos glTF Blender I/O v3.2.43",
        "version" : "2.0"
    },
    "scene" : 0,
    "scenes" : [
        {
            "name" : "Scene",
            "nodes" : [
                0,
                1,
                2,
                3,
                4,
                5,
                6
            ]
        }
    ],
    "nodes" : [
        {
            "mesh" : 0,
            "name" : "Cloth",
            "scale" : [
                2.5607175827026367,
                2.008185625076294,
                2.008185625076294
            ],
            "translation" : [
                1.1939330101013184,
                1.2411562204360962,
                -2.0341832637786865
            ]
        },
        {
            "mesh" : 1,
            "name" : "Base",
            "scale" : [
                1,
                0.9049091935157776,
                1.1346166133880615
            ],
            "translation" : [
                4.065643310546875,
                0.6244864463806152,
                -2.0766806602478027
            ]
        },
        {
            "mesh" : 2,
            "name" : "Cube.003",
            "translation" : [
                -1.0132420063018799,
                0.6244864463806152,
                -2.0766806602478027
            ]
        },
        {
            "mesh" : 3,
            "name" : "Base.001",
            "scale" : [
                1,
                0.9049091935157776,
                1.1346166133880615
            ],
            "translation" : [
                4.065643310546875,
                0.6244864463806152,
                -2.0766806602478027
            ]
        },
        {
            "mesh" : 4,
            "name" : "Head",
            "translation" : [
                -1.0004463195800781,
                0.4932261109352112,
                -1.9700994491577148
            ]
        },
        {
            "mesh" : 5,
            "name" : "Pillow_left",
            "rotation" : [
                0,
                0.14941567182540894,
                0,
                0.9887744784355164
            ],
            "scale" : [
                0.43289944529533386,
                0.8262534737586975,
                0.7756543755531311
            ],
            "translation" : [
                3.0738329887390137,
                1.551208257675171,
                -3.060286283493042
            ]
        },
        {
            "mesh" : 6,
            "name" : "Pillow_right",
            "rotation" : [
                0,
                0,
                0.3359098732471466,
                0.9418941736221313
            ],
            "scale" : [
                0.4150628447532654,
                0.8454046845436096,
                0.7756543755531311
            ],
            "translation" : [
                3.6984829902648926,
                1.6600534915924072,
                -1.317842960357666
            ]
        }
    ],
    "materials" : [
        {
            "doubleSided" : true,
            "name" : "Material",
            "pbrMetallicRoughness" : {
                "baseColorFactor" : [
                    0.7612749338150024,
                    0.2908826768398285,
                    0.3436131775379181,
                    1
                ],
                "metallicFactor" : 0
            }
        },
        {
            "doubleSided" : true,
            "name" : "Metalic",
            "pbrMetallicRoughness" : {
                "baseColorFactor" : [
                    0.11068875342607498,
                    0.05275755748152733,
                    0.015704620629549026,
                    1
                ],
                "metallicFactor" : 0.800000011920929,
                "roughnessFactor" : 0.4000000059604645
            }
        },
        {
            "doubleSided" : true,
            "name" : "Material.012",
            "pbrMetallicRoughness" : {
                "baseColorFactor" : [
                    0.12823867797851562,
                    0.12823867797851562,
                    0.12823867797851562,
                    1
                ],
                "metallicFactor" : 0
            }
        },
        {
            "doubleSided" : true,
            "name" : "Material.002",
            "pbrMetallicRoughness" : {
                "baseColorFactor" : [
                    0.6500048041343689,
                    0.6024569869041443,
                    0.5661737322807312,
                    1
                ],
                "metallicFactor" : 0,
                "roughnessFactor" : 0.5
            }
        }
    ],
    "meshes" : [
        {
            "name" : "Plane.009",
            "primitives" : [
                {
                    "attributes" : {
                        "POSITION" : 0,
                        "NORMAL" : 1,
                        "TEXCOORD_0" : 2
                    },
                    "indices" : 3,
                    "material" : 0
                }
            ]
        },
        {
            "name" : "Cube.007",
            "primitives" : [
                {
                    "attributes" : {
                        "POSITION" : 4,
                        "NORMAL" : 5,
                        "TEXCOORD_0" : 6
                    },
                    "indices" : 7,
                    "material" : 1
                }
            ]
        },
        {
            "name" : "Cube.008",
            "primitives" : [
                {
                    "attributes" : {
                        "POSITION" : 8,
                        "NORMAL" : 9,
                        "TEXCOORD_0" : 10
                    },
                    "indices" : 11,
                    "material" : 2
                }
            ]
        },
        {
            "name" : "Cube.006",
            "primitives" : [
                {
                    "attributes" : {
                        "POSITION" : 12,
                        "NORMAL" : 13,
                        "TEXCOORD_0" : 14
                    },
                    "indices" : 7,
                    "material" : 1
                }
            ]
        },
        {
            "name" : "Cylinder.003",
            "primitives" : [
                {
                    "attributes" : {
                        "POSITION" : 15,
                        "NORMAL" : 16,
                        "TEXCOORD_0" : 17
                    },
                    "indices" : 18,
                    "material" : 1
                }
            ]
        },
        {
            "name" : "Plane.007",
            "primitives" : [
                {
                    "attributes" : {
                        "POSITION" : 19,
                        "NORMAL" : 20,
                        "TEXCOORD_0" : 21
                    },
                    "indices" : 22,
                    "material" : 3
                }
            ]
        },
        {
            "name" : "Plane.008",
            "primitives" : [
                {
                    "attributes" : {
                        "POSITION" : 23,
                        "NORMAL" : 24,
                        "TEXCOORD_0" : 25
                    },
                    "indices" : 26,
                    "material" : 3
                }
            ]
        }
    ],
    "accessors" : [
        {
            "bufferView" : 0,
            "componentType" : 5126,
            "count" : 2704,
            "max" : [
                0.9176165461540222,
                0.16189223527908325,
                1.0292617082595825
            ],
            "min" : [
                -0.9560115933418274,
                -0.18621288239955902,
                -0.94994056224823
            ],
            "type" : "VEC3"
        },
        {
            "bufferView" : 1,
            "componentType" : 5126,
            "count" : 2704,
            "type" : "VEC3"
        },
        {
            "bufferView" : 2,
            "componentType" : 5126,
            "count" : 2704,
            "type" : "VEC2"
        },
        {
            "bufferView" : 3,
            "componentType" : 5123,
            "count" : 15606,
            "type" : "SCALAR"
        },
        {
            "bufferView" : 4,
            "componentType" : 5126,
            "count" : 2698,
            "max" : [
                0.06488697975873947,
                0.3384180963039398,
                1.7599552869796753
            ],
            "min" : [
                -5.143406867980957,
                -0.711143434047699,
                -1.7599552869796753
            ],
            "type" : "VEC3"
        },
        {
            "bufferView" : 5,
            "componentType" : 5126,
            "count" : 2698,
            "type" : "VEC3"
        },
        {
            "bufferView" : 6,
            "componentType" : 5126,
            "count" : 2698,
            "type" : "VEC2"
        },
        {
            "bufferView" : 7,
            "componentType" : 5123,
            "count" : 8304,
            "type" : "SCALAR"
        },
        {
            "bufferView" : 8,
            "componentType" : 5126,
            "count" : 921,
            "max" : [
                5.061402320861816,
                0.5164951086044312,
                1.9135890007019043
            ],
            "min" : [
                0.019156932830810547,
                -0.25475454330444336,
                -1.9135890007019043
            ],
            "type" : "VEC3"
        },
        {
            "bufferView" : 9,
            "componentType" : 5126,
            "count" : 921,
            "type" : "VEC3"
        },
        {
            "bufferView" : 10,
            "componentType" : 5126,
            "count" : 921,
            "type" : "VEC2"
        },
        {
            "bufferView" : 11,
            "componentType" : 5123,
            "count" : 4626,
            "type" : "SCALAR"
        },
        {
            "bufferView" : 12,
            "componentType" : 5126,
            "count" : 2698,
            "max" : [
                0.06488697975873947,
                0.3384180963039398,
                1.7599552869796753
            ],
            "min" : [
                -5.143406867980957,
                -0.711143434047699,
                -1.7599552869796753
            ],
            "type" : "VEC3"
        },
        {
            "bufferView" : 13,
            "componentType" : 5126,
            "count" : 2698,
            "type" : "VEC3"
        },
        {
            "bufferView" : 14,
            "componentType" : 5126,
            "count" : 2698,
            "type" : "VEC2"
        },
        {
            "bufferView" : 15,
            "componentType" : 5126,
            "count" : 7335,
            "max" : [
                5.198416709899902,
                1.6408027410507202,
                2.187899112701416
            ],
            "min" : [
                4.7258734703063965,
                0.2439730018377304,
                -2.187899112701416
            ],
            "type" : "VEC3"
        },
        {
            "bufferView" : 16,
            "componentType" : 5126,
            "count" : 7335,
            "type" : "VEC3"
        },
        {
            "bufferView" : 17,
            "componentType" : 5126,
            "count" : 7335,
            "type" : "VEC2"
        },
        {
            "bufferView" : 18,
            "componentType" : 5123,
            "count" : 31326,
            "type" : "SCALAR"
        },
        {
            "bufferView" : 19,
            "componentType" : 5126,
            "count" : 3901,
            "max" : [
                2.3555874824523926,
                -0.013549983501434326,
                1.4040359258651733
            ],
            "min" : [
                -2.398268699645996,
                -0.5061846971511841,
                -1.3376295566558838
            ],
            "type" : "VEC3"
        },
        {
            "bufferView" : 20,
            "componentType" : 5126,
            "count" : 3901,
            "type" : "VEC3"
        },
        {
            "bufferView" : 21,
            "componentType" : 5126,
            "count" : 3901,
            "type" : "VEC2"
        },
        {
            "bufferView" : 22,
            "componentType" : 5123,
            "count" : 23232,
            "type" : "SCALAR"
        },
        {
            "bufferView" : 23,
            "componentType" : 5126,
            "count" : 3908,
            "max" : [
                1.0496482849121094,
                0.011606560088694096,
                1.1501884460449219
            ],
            "min" : [
                -1.6268001794815063,
                -0.531230628490448,
                -1.1627931594848633
            ],
            "type" : "VEC3"
        },
        {
            "bufferView" : 24,
            "componentType" : 5126,
            "count" : 3908,
            "type" : "VEC3"
        },
        {
            "bufferView" : 25,
            "componentType" : 5126,
            "count" : 3908,
            "type" : "VEC2"
        },
        {
            "bufferView" : 26,
            "componentType" : 5123,
            "count" : 23232,
            "type" : "SCALAR"
        }
    ],
    "bufferViews" : [
        {
            "buffer" : 0,
            "byteLength" : 32448,
            "byteOffset" : 0
        },
        {
            "buffer" : 0,
            "byteLength" : 32448,
            "byteOffset" : 32448
        },
        {
            "buffer" : 0,
            "byteLength" : 21632,
            "byteOffset" : 64896
        },
        {
            "buffer" : 0,
            "byteLength" : 31212,
            "byteOffset" : 86528
        },
        {
            "buffer" : 0,
            "byteLength" : 32376,
            "byteOffset" : 117740
        },
        {
            "buffer" : 0,
            "byteLength" : 32376,
            "byteOffset" : 150116
        },
        {
            "buffer" : 0,
            "byteLength" : 21584,
            "byteOffset" : 182492
        },
        {
            "buffer" : 0,
            "byteLength" : 16608,
            "byteOffset" : 204076
        },
        {
            "buffer" : 0,
            "byteLength" : 11052,
            "byteOffset" : 220684
        },
        {
            "buffer" : 0,
            "byteLength" : 11052,
            "byteOffset" : 231736
        },
        {
            "buffer" : 0,
            "byteLength" : 7368,
            "byteOffset" : 242788
        },
        {
            "buffer" : 0,
            "byteLength" : 9252,
            "byteOffset" : 250156
        },
        {
            "buffer" : 0,
            "byteLength" : 32376,
            "byteOffset" : 259408
        },
        {
            "buffer" : 0,
            "byteLength" : 32376,
            "byteOffset" : 291784
        },
        {
            "buffer" : 0,
            "byteLength" : 21584,
            "byteOffset" : 324160
        },
        {
            "buffer" : 0,
            "byteLength" : 88020,
            "byteOffset" : 345744
        },
        {
            "buffer" : 0,
            "byteLength" : 88020,
            "byteOffset" : 433764
        },
        {
            "buffer" : 0,
            "byteLength" : 58680,
            "byteOffset" : 521784
        },
        {
            "buffer" : 0,
            "byteLength" : 62652,
            "byteOffset" : 580464
        },
        {
            "buffer" : 0,
            "byteLength" : 46812,
            "byteOffset" : 643116
        },
        {
            "buffer" : 0,
            "byteLength" : 46812,
            "byteOffset" : 689928
        },
        {
            "buffer" : 0,
            "byteLength" : 31208,
            "byteOffset" : 736740
        },
        {
            "buffer" : 0,
            "byteLength" : 46464,
            "byteOffset" : 767948
        },
        {
            "buffer" : 0,
            "byteLength" : 46896,
            "byteOffset" : 814412
        },
        {
            "buffer" : 0,
            "byteLength" : 46896,
            "byteOffset" : 861308
        },
        {
            "buffer" : 0,
            "byteLength" : 31264,
            "byteOffset" : 908204
        },
        {
            "buffer" : 0,
            "byteLength" : 46464,
            "byteOffset" : 939468
        }
    ],
    "buffers" : [
        {
            "byteLength" : 985932,
            "uri" : "data:application/octet-stream;base64,"
        }
    ]
}
