{
    "asset" : {
        "generator" : "Khronos glTF Blender I/O v3.2.43",
        "version" : "2.0"
    },
    "scene" : 0,
    "scenes" : [
        {
            "name" : "Scene",
            "nodes" : [
                0,
                1,
                2,
                3,
                4,
                5
            ]
        }
    ],
    "nodes" : [
        {
            "mesh" : 0,
            "name" : "Cube.014",
            "rotation" : [
                0,
                0.8959856033325195,
                0,
                0.44408318400382996
            ],
            "scale" : [
                0.06098296493291855,
                0.06098296493291855,
                0.06098296493291855
            ],
            "translation" : [
                0.231940358877182,
                0.34564024209976196,
                -0.621060848236084
            ]
        },
        {
            "mesh" : 1,
            "name" : "285.000",
            "rotation" : [
                0.31191572546958923,
                0.6345931887626648,
                -0.6345933079719543,
                0.31191566586494446
            ],
            "scale" : [
                0.005013680551201105,
                0.005013680551201105,
                0.00501368148252368
            ],
            "translation" : [
                0.36280539631843567,
                0.20373374223709106,
                -0.7191636562347412
            ]
        },
        {
            "mesh" : 2,
            "name" : "289.000",
            "rotation" : [
                0.31191572546958923,
                0.6345931887626648,
                -0.6345933079719543,
                0.31191566586494446
            ],
            "scale" : [
                0.005013680551201105,
                0.005013680551201105,
                0.00501368148252368
            ],
            "translation" : [
                0.2328745424747467,
                0.3430628180503845,
                -0.6217162609100342
            ]
        },
        {
            "mesh" : 3,
            "name" : "286.000",
            "rotation" : [
                0.31191572546958923,
                0.6345931887626648,
                -0.6345933079719543,
                0.31191566586494446
            ],
            "scale" : [
                0.005013680551201105,
                0.005013680551201105,
                0.00501368148252368
            ],
            "translation" : [
                0.3627527952194214,
                0.20431990921497345,
                -0.7209282517433167
            ]
        },
        {
            "mesh" : 4,
            "name" : "290.000",
            "rotation" : [
                0.31191572546958923,
                0.6345931887626648,
                -0.6345933079719543,
                0.31191566586494446
            ],
            "scale" : [
                0.005013680551201105,
                0.005013680551201105,
                0.00501368148252368
            ],
            "translation" : [
                0.231940358877182,
                0.34564024209976196,
                -0.621060848236084
            ]
        },
        {
            "mesh" : 5,
            "name" : "281.000",
            "rotation" : [
                0.31191572546958923,
                0.6345931887626648,
                -0.6345933079719543,
                0.31191566586494446
            ],
            "scale" : [
                0.005013680551201105,
                0.005013680551201105,
                0.00501368148252368
            ],
            "translation" : [
                0.2768421471118927,
                0.36512264609336853,
                -0.6525465846061707
            ]
        }
    ],
    "materials" : [
        {
            "doubleSided" : true,
            "name" : "Material.001",
            "pbrMetallicRoughness" : {
                "baseColorFactor" : [
                    0.3185425400733948,
                    0.15995725989341736,
                    0.05146664008498192,
                    1
                ],
                "metallicFactor" : 0,
                "roughnessFactor" : 0.5
            }
        },
        {
            "doubleSided" : true,
            "name" : "278",
            "pbrMetallicRoughness" : {
                "baseColorFactor" : [
                    1,
                    1,
                    1,
                    1
                ],
                "metallicFactor" : 0,
                "roughnessFactor" : 0.5
            }
        },
        {
            "doubleSided" : true,
            "name" : "279",
            "pbrMetallicRoughness" : {
                "baseColorFactor" : [
                    0.8970996141433716,
                    0.536474883556366,
                    0.5962960124015808,
                    1
                ],
                "metallicFactor" : 0,
                "roughnessFactor" : 0.5
            }
        }
    ],
    "meshes" : [
        {
            "name" : "Cube.007",
            "primitives" : [
                {
                    "attributes" : {
                        "POSITION" : 0,
                        "NORMAL" : 1
                    },
                    "indices" : 2,
                    "material" : 0
                }
            ]
        },
        {
            "name" : "285.002",
            "primitives" : [
                {
                    "attributes" : {
                        "POSITION" : 3,
                        "NORMAL" : 4,
                        "TEXCOORD_0" : 5
                    },
                    "indices" : 6,
                    "material" : 1
                }
            ]
        },
        {
            "name" : "289.002",
            "primitives" : [
                {
                    "attributes" : {
                        "POSITION" : 7,
                        "NORMAL" : 8,
                        "TEXCOORD_0" : 9
                    },
                    "indices" : 10,
                    "material" : 1
                }
            ]
        },
        {
            "name" : "286.002",
            "primitives" : [
                {
                    "attributes" : {
                        "POSITION" : 11,
                        "NORMAL" : 12,
                        "TEXCOORD_0" : 13
                    },
                    "indices" : 14,
                    "material" : 2
                }
            ]
        },
        {
            "name" : "290.002",
            "primitives" : [
                {
                    "attributes" : {
                        "POSITION" : 15,
                        "NORMAL" : 16,
                        "TEXCOORD_0" : 17
                    },
                    "indices" : 14,
                    "material" : 2
                }
            ]
        },
        {
            "name" : "281.002",
            "primitives" : [
                {
                    "attributes" : {
                        "POSITION" : 18,
                        "NORMAL" : 19,
                        "TEXCOORD_0" : 20
                    },
                    "indices" : 21,
                    "material" : 2
                }
            ]
        }
    ],
    "accessors" : [
        {
            "bufferView" : 0,
            "componentType" : 5126,
            "count" : 350,
            "max" : [
                3.347611665725708,
                -0.3750148415565491,
                5.401683330535889
            ],
            "min" : [
                -0.23404935002326965,
                -4.9868245124816895,
                -2.096097230911255
            ],
            "type" : "VEC3"
        },
        {
            "bufferView" : 1,
            "componentType" : 5126,
            "count" : 350,
            "type" : "VEC3"
        },
        {
            "bufferView" : 2,
            "componentType" : 5123,
            "count" : 2004,
            "type" : "SCALAR"
        },
        {
            "bufferView" : 3,
            "componentType" : 5126,
            "count" : 704,
            "max" : [
                33.790679931640625,
                35.75799560546875,
                6.598821640014648
            ],
            "min" : [
                -33.94195556640625,
                -37.69598388671875,
                -7.0552978515625
            ],
            "type" : "VEC3"
        },
        {
            "bufferView" : 4,
            "componentType" : 5126,
            "count" : 704,
            "type" : "VEC3"
        },
        {
            "bufferView" : 5,
            "componentType" : 5126,
            "count" : 704,
            "type" : "VEC2"
        },
        {
            "bufferView" : 6,
            "componentType" : 5123,
            "count" : 2304,
            "type" : "SCALAR"
        },
        {
            "bufferView" : 7,
            "componentType" : 5126,
            "count" : 566,
            "max" : [
                33.80621337890625,
                9.8824462890625,
                20.668048858642578
            ],
            "min" : [
                -33.706298828125,
                -9.69439697265625,
                -17.61212158203125
            ],
            "type" : "VEC3"
        },
        {
            "bufferView" : 8,
            "componentType" : 5126,
            "count" : 566,
            "type" : "VEC3"
        },
        {
            "bufferView" : 9,
            "componentType" : 5126,
            "count" : 566,
            "type" : "VEC2"
        },
        {
            "bufferView" : 10,
            "componentType" : 5123,
            "count" : 2304,
            "type" : "SCALAR"
        },
        {
            "bufferView" : 11,
            "componentType" : 5126,
            "count" : 506,
            "max" : [
                33.213043212890625,
                35.73187255859375,
                7.725746154785156
            ],
            "min" : [
                -33.90631103515625,
                -37.769805908203125,
                -10.272747039794922
            ],
            "type" : "VEC3"
        },
        {
            "bufferView" : 12,
            "componentType" : 5126,
            "count" : 506,
            "type" : "VEC3"
        },
        {
            "bufferView" : 13,
            "componentType" : 5126,
            "count" : 506,
            "type" : "VEC2"
        },
        {
            "bufferView" : 14,
            "componentType" : 5123,
            "count" : 2640,
            "type" : "SCALAR"
        },
        {
            "bufferView" : 15,
            "componentType" : 5126,
            "count" : 506,
            "max" : [
                33.443359375,
                10.456939697265625,
                20.84927749633789
            ],
            "min" : [
                -33.46051025390625,
                -9.97467041015625,
                -16.777366638183594
            ],
            "type" : "VEC3"
        },
        {
            "bufferView" : 16,
            "componentType" : 5126,
            "count" : 506,
            "type" : "VEC3"
        },
        {
            "bufferView" : 17,
            "componentType" : 5126,
            "count" : 506,
            "type" : "VEC2"
        },
        {
            "bufferView" : 18,
            "componentType" : 5126,
            "count" : 286,
            "max" : [
                22.58892822265625,
                7.89984130859375,
                23.074459075927734
            ],
            "min" : [
                -23.30084228515625,
                -5.427276611328125,
                -18.24951171875
            ],
            "type" : "VEC3"
        },
        {
            "bufferView" : 19,
            "componentType" : 5126,
            "count" : 286,
            "type" : "VEC3"
        },
        {
            "bufferView" : 20,
            "componentType" : 5126,
            "count" : 286,
            "type" : "VEC2"
        },
        {
            "bufferView" : 21,
            "componentType" : 5123,
            "count" : 1440,
            "type" : "SCALAR"
        }
    ],
    "bufferViews" : [
        {
            "buffer" : 0,
            "byteLength" : 4200,
            "byteOffset" : 0
        },
        {
            "buffer" : 0,
            "byteLength" : 4200,
            "byteOffset" : 4200
        },
        {
            "buffer" : 0,
            "byteLength" : 4008,
            "byteOffset" : 8400
        },
        {
            "buffer" : 0,
            "byteLength" : 8448,
            "byteOffset" : 12408
        },
        {
            "buffer" : 0,
            "byteLength" : 8448,
            "byteOffset" : 20856
        },
        {
            "buffer" : 0,
            "byteLength" : 5632,
            "byteOffset" : 29304
        },
        {
            "buffer" : 0,
            "byteLength" : 4608,
            "byteOffset" : 34936
        },
        {
            "buffer" : 0,
            "byteLength" : 6792,
            "byteOffset" : 39544
        },
        {
            "buffer" : 0,
            "byteLength" : 6792,
            "byteOffset" : 46336
        },
        {
            "buffer" : 0,
            "byteLength" : 4528,
            "byteOffset" : 53128
        },
        {
            "buffer" : 0,
            "byteLength" : 4608,
            "byteOffset" : 57656
        },
        {
            "buffer" : 0,
            "byteLength" : 6072,
            "byteOffset" : 62264
        },
        {
            "buffer" : 0,
            "byteLength" : 6072,
            "byteOffset" : 68336
        },
        {
            "buffer" : 0,
            "byteLength" : 4048,
            "byteOffset" : 74408
        },
        {
            "buffer" : 0,
            "byteLength" : 5280,
            "byteOffset" : 78456
        },
        {
            "buffer" : 0,
            "byteLength" : 6072,
            "byteOffset" : 83736
        },
        {
            "buffer" : 0,
            "byteLength" : 6072,
            "byteOffset" : 89808
        },
        {
            "buffer" : 0,
            "byteLength" : 4048,
            "byteOffset" : 95880
        },
        {
            "buffer" : 0,
            "byteLength" : 3432,
            "byteOffset" : 99928
        },
        {
            "buffer" : 0,
            "byteLength" : 3432,
            "byteOffset" : 103360
        },
        {
            "buffer" : 0,
            "byteLength" : 2288,
            "byteOffset" : 106792
        },
        {
            "buffer" : 0,
            "byteLength" : 2880,
            "byteOffset" : 109080
        }
    ],
    "buffers" : [
        {
            "byteLength" : 111960,
            "uri" : "data:application/octet-stream;base64,"
        }
    ]
}
