{
    "asset" : {
        "generator" : "Khronos glTF Blender I/O v3.2.43",
        "version" : "2.0"
    },
    "scene" : 0,
    "scenes" : [
        {
            "name" : "Scene",
            "nodes" : [
                0
            ]
        }
    ],
    "nodes" : [
        {
            "mesh" : 0,
            "name" : "Mueble",
            "scale" : [
                0.009999999776482582,
                0.09999999403953552,
                0.4599999785423279
            ],
            "translation" : [
                0.4099999964237213,
                0.14000000059604645,
                0.26499998569488525
            ]
        }
    ],
    "materials" : [
        {
            "doubleSided" : true,
            "name" : "Material.002",
            "pbrMetallicRoughness" : {
                "baseColorTexture" : {
                    "index" : 0
                },
                "metallicFactor" : 0,
                "roughnessFactor" : 0.4000000059604645
            }
        },
        {
            "doubleSided" : true,
            "name" : "Material.005",
            "pbrMetallicRoughness" : {
                "baseColorTexture" : {
                    "index" : 1
                },
                "metallicFactor" : 0,
                "roughnessFactor" : 0.5
            }
        },
        {
            "doubleSided" : true,
            "name" : "Material.003",
            "pbrMetallicRoughness" : {
                "baseColorTexture" : {
                    "index" : 2
                },
                "metallicFactor" : 0,
                "roughnessFactor" : 0.4000000059604645
            }
        },
        {
            "doubleSided" : true,
            "name" : "Material.004",
            "pbrMetallicRoughness" : {
                "baseColorFactor" : [
                    0.3843787610530853,
                    0.1818009614944458,
                    0.041680485010147095,
                    1
                ],
                "metallicFactor" : 0,
                "roughnessFactor" : 0.5
            }
        }
    ],
    "meshes" : [
        {
            "name" : "Cubo.004",
            "primitives" : [
                {
                    "attributes" : {
                        "POSITION" : 0,
                        "NORMAL" : 1,
                        "TEXCOORD_0" : 2,
                        "TEXCOORD_1" : 3
                    },
                    "indices" : 4,
                    "material" : 0
                },
                {
                    "attributes" : {
                        "POSITION" : 5,
                        "NORMAL" : 6,
                        "TEXCOORD_0" : 7,
                        "TEXCOORD_1" : 8
                    },
                    "indices" : 9,
                    "material" : 1
                },
                {
                    "attributes" : {
                        "POSITION" : 10,
                        "NORMAL" : 11,
                        "TEXCOORD_0" : 12,
                        "TEXCOORD_1" : 13
                    },
                    "indices" : 14,
                    "material" : 2
                },
                {
                    "attributes" : {
                        "POSITION" : 15,
                        "NORMAL" : 16,
                        "TEXCOORD_0" : 17,
                        "TEXCOORD_1" : 18
                    },
                    "indices" : 19,
                    "material" : 3
                }
            ]
        }
    ],
    "textures" : [
        {
            "sampler" : 0,
            "source" : 0
        },
        {
            "sampler" : 0,
            "source" : 0
        },
        {
            "sampler" : 0,
            "source" : 0
        }
    ],
    "images" : [
        {
            "bufferView" : 5,
            "mimeType" : "image/jpeg",
            "name" : "wooden-textured-background_53876-14865"
        }
    ],
    "accessors" : [
        {
            "bufferView" : 0,
            "componentType" : 5126,
            "count" : 2611,
            "max" : [
                4.714047431945801,
                18.60000228881836,
                1.0543479919433594
            ],
            "min" : [
                -81,
                -1.4000005722045898,
                -2.206521987915039
            ],
            "type" : "VEC3"
        },
        {
            "bufferView" : 1,
            "componentType" : 5126,
            "count" : 2611,
            "type" : "VEC3"
        },
        {
            "bufferView" : 2,
            "componentType" : 5126,
            "count" : 2611,
            "type" : "VEC2"
        },
        {
            "bufferView" : 3,
            "componentType" : 5126,
            "count" : 2611,
            "type" : "VEC2"
        },
        {
            "bufferView" : 4,
            "componentType" : 5123,
            "count" : 9498,
            "type" : "SCALAR"
        },
        {
            "bufferView" : 6,
            "componentType" : 5126,
            "count" : 22,
            "max" : [
                3.130809783935547,
                10.17172622680664,
                -0.09787849336862564
            ],
            "min" : [
                1.6308097839355469,
                10.149934768676758,
                -0.18483658134937286
            ],
            "type" : "VEC3"
        },
        {
            "bufferView" : 7,
            "componentType" : 5126,
            "count" : 22,
            "type" : "VEC3"
        },
        {
            "bufferView" : 8,
            "componentType" : 5126,
            "count" : 22,
            "type" : "VEC2"
        },
        {
            "bufferView" : 9,
            "componentType" : 5126,
            "count" : 22,
            "type" : "VEC2"
        },
        {
            "bufferView" : 10,
            "componentType" : 5123,
            "count" : 54,
            "type" : "SCALAR"
        },
        {
            "bufferView" : 11,
            "componentType" : 5126,
            "count" : 20,
            "max" : [
                1.0000038146972656,
                18.400001525878906,
                1
            ],
            "min" : [
                0.9999998807907104,
                -1,
                -2.163043737411499
            ],
            "type" : "VEC3"
        },
        {
            "bufferView" : 12,
            "componentType" : 5126,
            "count" : 20,
            "type" : "VEC3"
        },
        {
            "bufferView" : 13,
            "componentType" : 5126,
            "count" : 20,
            "type" : "VEC2"
        },
        {
            "bufferView" : 14,
            "componentType" : 5126,
            "count" : 20,
            "type" : "VEC2"
        },
        {
            "bufferView" : 15,
            "componentType" : 5123,
            "count" : 30,
            "type" : "SCALAR"
        },
        {
            "bufferView" : 16,
            "componentType" : 5126,
            "count" : 1077,
            "max" : [
                4.714047431945801,
                12.276134490966797,
                0.18483670055866241
            ],
            "min" : [
                -1.8691902160644531,
                -0.20000001788139343,
                -1.2635658979415894
            ],
            "type" : "VEC3"
        },
        {
            "bufferView" : 17,
            "componentType" : 5126,
            "count" : 1077,
            "type" : "VEC3"
        },
        {
            "bufferView" : 18,
            "componentType" : 5126,
            "count" : 1077,
            "type" : "VEC2"
        },
        {
            "bufferView" : 19,
            "componentType" : 5126,
            "count" : 1077,
            "type" : "VEC2"
        },
        {
            "bufferView" : 20,
            "componentType" : 5123,
            "count" : 4194,
            "type" : "SCALAR"
        }
    ],
    "bufferViews" : [
        {
            "buffer" : 0,
            "byteLength" : 31332,
            "byteOffset" : 0
        },
        {
            "buffer" : 0,
            "byteLength" : 31332,
            "byteOffset" : 31332
        },
        {
            "buffer" : 0,
            "byteLength" : 20888,
            "byteOffset" : 62664
        },
        {
            "buffer" : 0,
            "byteLength" : 20888,
            "byteOffset" : 83552
        },
        {
            "buffer" : 0,
            "byteLength" : 18996,
            "byteOffset" : 104440
        },
        {
            "buffer" : 0,
            "byteLength" : 1297296,
            "byteOffset" : 123436
        },
        {
            "buffer" : 0,
            "byteLength" : 264,
            "byteOffset" : 1420732
        },
        {
            "buffer" : 0,
            "byteLength" : 264,
            "byteOffset" : 1420996
        },
        {
            "buffer" : 0,
            "byteLength" : 176,
            "byteOffset" : 1421260
        },
        {
            "buffer" : 0,
            "byteLength" : 176,
            "byteOffset" : 1421436
        },
        {
            "buffer" : 0,
            "byteLength" : 108,
            "byteOffset" : 1421612
        },
        {
            "buffer" : 0,
            "byteLength" : 240,
            "byteOffset" : 1421720
        },
        {
            "buffer" : 0,
            "byteLength" : 240,
            "byteOffset" : 1421960
        },
        {
            "buffer" : 0,
            "byteLength" : 160,
            "byteOffset" : 1422200
        },
        {
            "buffer" : 0,
            "byteLength" : 160,
            "byteOffset" : 1422360
        },
        {
            "buffer" : 0,
            "byteLength" : 60,
            "byteOffset" : 1422520
        },
        {
            "buffer" : 0,
            "byteLength" : 12924,
            "byteOffset" : 1422580
        },
        {
            "buffer" : 0,
            "byteLength" : 12924,
            "byteOffset" : 1435504
        },
        {
            "buffer" : 0,
            "byteLength" : 8616,
            "byteOffset" : 1448428
        },
        {
            "buffer" : 0,
            "byteLength" : 8616,
            "byteOffset" : 1457044
        },
        {
            "buffer" : 0,
            "byteLength" : 8388,
            "byteOffset" : 1465660
        }
    ],
    "samplers" : [
        {
            "magFilter" : 9729,
            "minFilter" : 9987
        }
    ],
    "buffers" : [
        {
            "byteLength" : 1474048,
            "uri" : "data:application/octet-stream;base64,"
        }
    ]
}
