{
    "asset" : {
        "generator" : "Khronos glTF Blender I/O v3.2.43",
        "version" : "2.0"
    },
    "scene" : 0,
    "scenes" : [
        {
            "name" : "Scene",
            "nodes" : [
                2
            ]
        }
    ],
    "nodes" : [
        {
            "mesh" : 0,
            "name" : "Handle",
            "rotation" : [
                0.7071068286895752,
                0,
                0,
                0.7071067094802856
            ]
        },
        {
            "mesh" : 1,
            "name" : "Lock",
            "rotation" : [
                0.7071068286895752,
                0,
                0,
                0.7071067094802856
            ]
        },
        {
            "children" : [
                0,
                1
            ],
            "mesh" : 2,
            "name" : "Door"
        }
    ],
    "materials" : [
        {
            "doubleSided" : true,
            "name" : "Material.002",
            "pbrMetallicRoughness" : {
                "baseColorFactor" : [
                    0.37148064374923706,
                    0.23485048115253448,
                    0.038124918937683105,
                    1
                ],
                "metallicFactor" : 0.8823529481887817,
                "roughnessFactor" : 0
            }
        },
        {
            "doubleSided" : true,
            "name" : "Material.003",
            "pbrMetallicRoughness" : {
                "baseColorFactor" : [
                    0.3546878695487976,
                    0.23329687118530273,
                    0.06998588889837265,
                    1
                ],
                "metallicFactor" : 0.9803921580314636,
                "roughnessFactor" : 0.0032679587602615356
            }
        },
        {
            "doubleSided" : true,
            "name" : "Material",
            "pbrMetallicRoughness" : {
                "baseColorFactor" : [
                    0.8073393106460571,
                    0.8073393106460571,
                    0.8073393106460571,
                    1
                ],
                "metallicFactor" : 0,
                "roughnessFactor" : 0.6176470518112183
            }
        }
    ],
    "meshes" : [
        {
            "name" : "Door_Cube.003",
            "primitives" : [
                {
                    "attributes" : {
                        "POSITION" : 0,
                        "NORMAL" : 1,
                        "TEXCOORD_0" : 2
                    },
                    "indices" : 3,
                    "material" : 0
                }
            ]
        },
        {
            "name" : "Door_Cube.001",
            "primitives" : [
                {
                    "attributes" : {
                        "POSITION" : 4,
                        "NORMAL" : 5,
                        "TEXCOORD_0" : 6
                    },
                    "indices" : 7,
                    "material" : 1
                }
            ]
        },
        {
            "name" : "Door_Cube",
            "primitives" : [
                {
                    "attributes" : {
                        "POSITION" : 8,
                        "NORMAL" : 9,
                        "TEXCOORD_0" : 10
                    },
                    "indices" : 11,
                    "material" : 2
                }
            ]
        }
    ],
    "accessors" : [
        {
            "bufferView" : 0,
            "componentType" : 5126,
            "count" : 22834,
            "max" : [
                3.3901209831237793,
                0.6487129926681519,
                -6.749112129211426
            ],
            "min" : [
                2.870016098022461,
                -0.6473439931869507,
                -7.272674083709717
            ],
            "type" : "VEC3"
        },
        {
            "bufferView" : 1,
            "componentType" : 5126,
            "count" : 22834,
            "type" : "VEC3"
        },
        {
            "bufferView" : 2,
            "componentType" : 5126,
            "count" : 22834,
            "type" : "VEC2"
        },
        {
            "bufferView" : 3,
            "componentType" : 5123,
            "count" : 119424,
            "type" : "SCALAR"
        },
        {
            "bufferView" : 4,
            "componentType" : 5126,
            "count" : 8341,
            "max" : [
                3.5812580585479736,
                0.0944330021739006,
                -6.752217769622803
            ],
            "min" : [
                3.497612953186035,
                -0.09600099921226501,
                -7.2694010734558105
            ],
            "type" : "VEC3"
        },
        {
            "bufferView" : 5,
            "componentType" : 5126,
            "count" : 8341,
            "type" : "VEC3"
        },
        {
            "bufferView" : 6,
            "componentType" : 5126,
            "count" : 8341,
            "type" : "VEC2"
        },
        {
            "bufferView" : 7,
            "componentType" : 5123,
            "count" : 12624,
            "type" : "SCALAR"
        },
        {
            "bufferView" : 8,
            "componentType" : 5126,
            "count" : 3594,
            "max" : [
                3.512615919113159,
                12.940765380859375,
                0.14112910628318787
            ],
            "min" : [
                -3.512615919113159,
                -2.0335939154847438e-08,
                -0.14112700521945953
            ],
            "type" : "VEC3"
        },
        {
            "bufferView" : 9,
            "componentType" : 5126,
            "count" : 3594,
            "type" : "VEC3"
        },
        {
            "bufferView" : 10,
            "componentType" : 5126,
            "count" : 3594,
            "type" : "VEC2"
        },
        {
            "bufferView" : 11,
            "componentType" : 5123,
            "count" : 5784,
            "type" : "SCALAR"
        }
    ],
    "bufferViews" : [
        {
            "buffer" : 0,
            "byteLength" : 274008,
            "byteOffset" : 0
        },
        {
            "buffer" : 0,
            "byteLength" : 274008,
            "byteOffset" : 274008
        },
        {
            "buffer" : 0,
            "byteLength" : 182672,
            "byteOffset" : 548016
        },
        {
            "buffer" : 0,
            "byteLength" : 238848,
            "byteOffset" : 730688
        },
        {
            "buffer" : 0,
            "byteLength" : 100092,
            "byteOffset" : 969536
        },
        {
            "buffer" : 0,
            "byteLength" : 100092,
            "byteOffset" : 1069628
        },
        {
            "buffer" : 0,
            "byteLength" : 66728,
            "byteOffset" : 1169720
        },
        {
            "buffer" : 0,
            "byteLength" : 25248,
            "byteOffset" : 1236448
        },
        {
            "buffer" : 0,
            "byteLength" : 43128,
            "byteOffset" : 1261696
        },
        {
            "buffer" : 0,
            "byteLength" : 43128,
            "byteOffset" : 1304824
        },
        {
            "buffer" : 0,
            "byteLength" : 28752,
            "byteOffset" : 1347952
        },
        {
            "buffer" : 0,
            "byteLength" : 11568,
            "byteOffset" : 1376704
        }
    ],
    "buffers" : [
        {
            "byteLength" : 1388272,
            "uri" : "data:application/octet-stream;base64,"
        }
    ]
}
