{
    "asset" : {
        "generator" : "Khronos glTF Blender I/O v3.2.43",
        "version" : "2.0"
    },
    "scene" : 0,
    "scenes" : [
        {
            "name" : "Scene",
            "nodes" : [
                0
            ]
        }
    ],
    "nodes" : [
        {
            "mesh" : 0,
            "name" : "Key_01",
            "rotation" : [
                0.7071068286895752,
                0,
                0,
                0.7071067094802856
            ],
            "scale" : [
                0.32683202624320984,
                0.32683196663856506,
                0.32683196663856506
            ],
            "translation" : [
                -0.25729843974113464,
                0.6984347701072693,
                -0.27835071086883545
            ]
        }
    ],
    "animations" : [
        {
            "channels" : [
                {
                    "sampler" : 0,
                    "target" : {
                        "node" : 0,
                        "path" : "translation"
                    }
                },
                {
                    "sampler" : 1,
                    "target" : {
                        "node" : 0,
                        "path" : "rotation"
                    }
                },
                {
                    "sampler" : 2,
                    "target" : {
                        "node" : 0,
                        "path" : "scale"
                    }
                }
            ],
            "name" : "rotate",
            "samplers" : [
                {
                    "input" : 4,
                    "interpolation" : "LINEAR",
                    "output" : 5
                },
                {
                    "input" : 4,
                    "interpolation" : "LINEAR",
                    "output" : 6
                },
                {
                    "input" : 4,
                    "interpolation" : "LINEAR",
                    "output" : 7
                }
            ]
        }
    ],
    "materials" : [
        {
            "doubleSided" : true,
            "name" : "Material.001",
            "pbrMetallicRoughness" : {
                "baseColorFactor" : [
                    0.49190109968185425,
                    0.3200925290584564,
                    0.02607579156756401,
                    1
                ],
                "metallicFactor" : 0.9285714030265808,
                "roughnessFactor" : 0
            }
        }
    ],
    "meshes" : [
        {
            "name" : "polySurface1",
            "primitives" : [
                {
                    "attributes" : {
                        "POSITION" : 0,
                        "NORMAL" : 1,
                        "TEXCOORD_0" : 2
                    },
                    "indices" : 3,
                    "material" : 0
                }
            ]
        }
    ],
    "accessors" : [
        {
            "bufferView" : 0,
            "componentType" : 5126,
            "count" : 2590,
            "max" : [
                1.297326922416687,
                0.20250588655471802,
                2.5179519653320312
            ],
            "min" : [
                -1.2589895725250244,
                -0.2111610770225525,
                -3.685385227203369
            ],
            "type" : "VEC3"
        },
        {
            "bufferView" : 1,
            "componentType" : 5126,
            "count" : 2590,
            "type" : "VEC3"
        },
        {
            "bufferView" : 2,
            "componentType" : 5126,
            "count" : 2590,
            "type" : "VEC2"
        },
        {
            "bufferView" : 3,
            "componentType" : 5123,
            "count" : 6318,
            "type" : "SCALAR"
        },
        {
            "bufferView" : 4,
            "componentType" : 5126,
            "count" : 81,
            "max" : [
                3.375
            ],
            "min" : [
                0.041666666666666664
            ],
            "type" : "SCALAR"
        },
        {
            "bufferView" : 5,
            "componentType" : 5126,
            "count" : 81,
            "type" : "VEC3"
        },
        {
            "bufferView" : 6,
            "componentType" : 5126,
            "count" : 81,
            "type" : "VEC4"
        },
        {
            "bufferView" : 7,
            "componentType" : 5126,
            "count" : 81,
            "type" : "VEC3"
        }
    ],
    "bufferViews" : [
        {
            "buffer" : 0,
            "byteLength" : 31080,
            "byteOffset" : 0
        },
        {
            "buffer" : 0,
            "byteLength" : 31080,
            "byteOffset" : 31080
        },
        {
            "buffer" : 0,
            "byteLength" : 20720,
            "byteOffset" : 62160
        },
        {
            "buffer" : 0,
            "byteLength" : 12636,
            "byteOffset" : 82880
        },
        {
            "buffer" : 0,
            "byteLength" : 324,
            "byteOffset" : 95516
        },
        {
            "buffer" : 0,
            "byteLength" : 972,
            "byteOffset" : 95840
        },
        {
            "buffer" : 0,
            "byteLength" : 1296,
            "byteOffset" : 96812
        },
        {
            "buffer" : 0,
            "byteLength" : 972,
            "byteOffset" : 98108
        }
    ],
    "buffers" : [
        {
            "byteLength" : 99080,
            "uri" : "data:application/octet-stream;base64,"
        }
    ]
}
