{
    "asset" : {
        "generator" : "Khronos glTF Blender I/O v3.2.43",
        "version" : "2.0"
    },
    "scene" : 0,
    "scenes" : [
        {
            "name" : "Scene",
            "nodes" : [
                0,
                1
            ]
        }
    ],
    "nodes" : [
        {
            "mesh" : 0,
            "name" : "Text",
            "rotation" : [
                0.7081596851348877,
                0,
                0,
                0.706052303314209
            ],
            "scale" : [
                0.6934875845909119,
                0.6934877038002014,
                0.6934877038002014
            ],
            "translation" : [
                -0.22857563197612762,
                -0.13085238635540009,
                0.06449402123689651
            ]
        },
        {
            "mesh" : 1,
            "name" : "Text.001",
            "rotation" : [
                0.7021632790565491,
                -0.025466114282608032,
                -0.017691748216748238,
                0.7113405466079712
            ],
            "scale" : [
                0.4125024080276489,
                0.4125024676322937,
                0.4125024676322937
            ],
            "translation" : [
                0.2749072313308716,
                0.4580845832824707,
                0.004666643217206001
            ]
        }
    ],
    "materials" : [
        {
            "doubleSided" : true,
            "name" : "Material.001",
            "pbrMetallicRoughness" : {
                "baseColorFactor" : [
                    0.20283858478069305,
                    1,
                    0.4504874050617218,
                    1
                ],
                "metallicFactor" : 0,
                "roughnessFactor" : 0.5
            }
        },
        {
            "doubleSided" : true,
            "name" : "Material.002",
            "pbrMetallicRoughness" : {
                "baseColorFactor" : [
                    0.800000011920929,
                    0.800000011920929,
                    0.800000011920929,
                    1
                ],
                "metallicFactor" : 0,
                "roughnessFactor" : 0.5
            }
        }
    ],
    "meshes" : [
        {
            "name" : "Text",
            "primitives" : [
                {
                    "attributes" : {
                        "POSITION" : 0,
                        "NORMAL" : 1,
                        "TEXCOORD_0" : 2
                    },
                    "indices" : 3,
                    "material" : 0
                }
            ]
        },
        {
            "name" : "Text.001",
            "primitives" : [
                {
                    "attributes" : {
                        "POSITION" : 4,
                        "NORMAL" : 5,
                        "TEXCOORD_0" : 6
                    },
                    "indices" : 7,
                    "material" : 1
                }
            ]
        }
    ],
    "accessors" : [
        {
            "bufferView" : 0,
            "componentType" : 5126,
            "count" : 32198,
            "max" : [
                5.087779521942139,
                0.38700103759765625,
                0.1807228922843933
            ],
            "min" : [
                0.013769363053143024,
                0,
                -0.7013769149780273
            ],
            "type" : "VEC3"
        },
        {
            "bufferView" : 1,
            "componentType" : 5126,
            "count" : 32198,
            "type" : "VEC3"
        },
        {
            "bufferView" : 2,
            "componentType" : 5126,
            "count" : 32198,
            "type" : "VEC2"
        },
        {
            "bufferView" : 3,
            "componentType" : 5123,
            "count" : 43836,
            "type" : "SCALAR"
        },
        {
            "bufferView" : 4,
            "componentType" : 5126,
            "count" : 3433,
            "max" : [
                6.108433723449707,
                0,
                0.22805507481098175
            ],
            "min" : [
                0.026678141206502914,
                0,
                -0.5916323661804199
            ],
            "type" : "VEC3"
        },
        {
            "bufferView" : 5,
            "componentType" : 5126,
            "count" : 3433,
            "type" : "VEC3"
        },
        {
            "bufferView" : 6,
            "componentType" : 5126,
            "count" : 3433,
            "type" : "VEC2"
        },
        {
            "bufferView" : 7,
            "componentType" : 5123,
            "count" : 7722,
            "type" : "SCALAR"
        }
    ],
    "bufferViews" : [
        {
            "buffer" : 0,
            "byteLength" : 386376,
            "byteOffset" : 0
        },
        {
            "buffer" : 0,
            "byteLength" : 386376,
            "byteOffset" : 386376
        },
        {
            "buffer" : 0,
            "byteLength" : 257584,
            "byteOffset" : 772752
        },
        {
            "buffer" : 0,
            "byteLength" : 87672,
            "byteOffset" : 1030336
        },
        {
            "buffer" : 0,
            "byteLength" : 41196,
            "byteOffset" : 1118008
        },
        {
            "buffer" : 0,
            "byteLength" : 41196,
            "byteOffset" : 1159204
        },
        {
            "buffer" : 0,
            "byteLength" : 27464,
            "byteOffset" : 1200400
        },
        {
            "buffer" : 0,
            "byteLength" : 15444,
            "byteOffset" : 1227864
        }
    ],
    "buffers" : [
        {
            "byteLength" : 1243308,
            "uri" : "data:application/octet-stream;base64,"
        }
    ]
}
